<mxfile host="app.diagrams.net" modified="2024-03-29T06:23:00.681Z" agent="Mozilla/5.0 (Windows NT 10.0; Win64; x64) AppleWebKit/537.36 (KHTML, like Gecko) Chrome/123.0.0.0 Safari/537.36" version="23.1.2" etag="Jga04LYC7MpxzsfEs6US" type="github">
  <diagram name="Page-1" id="JoVSlSc8L3bQkQqJuk0o">
    <mxGraphModel>
      <root>
        <mxCell id="0" />
        <mxCell id="1" parent="0" />
      </root>
    </mxGraphModel>
  </diagram>
</mxfile>
